<svg width="27" height="27" viewBox="0 0 27 27" fill="none" xmlns="http://www.w3.org/2000/svg">
<path d="M22.3901 6.20914L23.0398 5.56857C23.2122 5.39625 23.309 5.16254 23.309 4.91884C23.309 4.67515 23.2122 4.44144 23.0398 4.26912C22.8675 4.09681 22.6338 4 22.3901 4C22.1464 4 21.9127 4.09681 21.7404 4.26912L20.4593 5.55942L17.8695 8.14915L12.0952 13.9143C11.1491 13.29 10.0049 13.0392 8.88431 13.2105C7.76377 13.3817 6.74668 13.9628 6.03013 14.8411C5.31358 15.7195 4.94857 16.8325 5.00585 17.9646C5.06312 19.0968 5.5386 20.1673 6.34014 20.9688C7.14168 21.7704 8.21222 22.2458 9.34432 22.3031C10.4764 22.3604 11.5895 21.9954 12.4678 21.2788C13.3462 20.5623 13.9273 19.5452 14.0985 18.4247C14.2697 17.3041 14.0189 16.1599 13.3947 15.2137L18.5101 10.0892L20.4501 12.0383C20.5354 12.123 20.6366 12.1901 20.7479 12.2358C20.8591 12.2814 20.9783 12.3046 21.0985 12.3042C21.2187 12.3038 21.3377 12.2797 21.4486 12.2333C21.5596 12.1869 21.6603 12.1191 21.745 12.0338C21.8297 11.9484 21.8968 11.8473 21.9424 11.736C21.988 11.6248 22.0113 11.5056 22.0109 11.3854C22.0104 11.2651 21.9863 11.1462 21.9399 11.0352C21.8935 10.9243 21.8257 10.8236 21.7404 10.7389L19.8004 8.79887L21.0998 7.50858L21.7404 8.14915C21.8251 8.23447 21.9258 8.30227 22.0367 8.34868C22.1477 8.39508 22.2666 8.41919 22.3869 8.41961C22.5071 8.42004 22.6263 8.39678 22.7375 8.35115C22.8488 8.30553 22.9499 8.23845 23.0353 8.15372C23.1206 8.069 23.1884 7.96831 23.2348 7.85738C23.2812 7.74646 23.3053 7.62748 23.3057 7.50724C23.3062 7.387 23.2829 7.26785 23.2373 7.1566C23.1917 7.04535 23.1246 6.94418 23.0398 6.85886L22.3901 6.20914ZM9.57872 20.4756C9.03575 20.4756 8.50497 20.3145 8.05351 20.0129C7.60205 19.7112 7.25018 19.2825 7.04239 18.7808C6.83461 18.2792 6.78024 17.7272 6.88617 17.1947C6.9921 16.6621 7.25356 16.173 7.6375 15.789C8.02143 15.4051 8.5106 15.1436 9.04314 15.0377C9.57567 14.9318 10.1277 14.9861 10.6293 15.1939C11.1309 15.4017 11.5597 15.7536 11.8614 16.205C12.163 16.6565 12.324 17.1873 12.324 17.7303C12.324 18.4584 12.0348 19.1566 11.5199 19.6715C11.0051 20.1863 10.3068 20.4756 9.57872 20.4756Z" fill="#CCCDD0"/>
</svg>
